<svg width="358" height="550" viewBox="0 0 358 550" fill="none" xmlns="http://www.w3.org/2000/svg">
    <path d="M127.62 65.2C126.12 72.28 124.42 79 123.32 85.82C121.44 97.46 124.65 107.99 131.58 117.33C134.82 121.7 138.47 125.8 142.17 129.8C157.56 146.4 166.73 165.88 168.11 188.48C169.63 213.31 161.26 234.6 142.92 251.66C137.25 256.93 131.19 261.78 125.53 267.06C113.16 278.6 105.04 292.37 103.31 309.56C100.55 337.06 119.67 361.98 143.64 366.84C145.13 367.14 146.64 367.36 148.16 367.44C154.97 367.77 159.6 364.55 160.61 358.85C161.64 353.01 157.66 347.11 151.47 345.37C150.62 345.13 149.74 344.94 148.86 344.85C138.01 343.78 130.82 337.61 126.74 327.99C122.46 317.92 124.72 308.26 131.6 300.26C135.64 295.56 140.94 291.68 146.26 288.38C156.76 281.86 167.32 275.4 175.25 265.77C201.87 233.43 207.14 197.72 191.42 158.91C186.9 147.74 179.68 138.24 172.77 128.5C167.58 121.19 162.52 113.6 158.73 105.52C150.04 87.04 151.52 68.8 162.26 51.41C164.86 47.21 167.74 43.17 170.67 39.19C178.14 29.04 181.28 17.7 180.38 5.18C180.28 3.71 180.37 2.23 180.37 0C181.75 1.49 182.8 2.5 183.72 3.62C194.05 16.24 196.49 30.86 194.75 46.6C193.69 56.14 192.28 65.7 192.18 75.27C192.11 82.48 195.48 89.03 200.48 94.43C208.01 102.58 217.59 100.66 220.35 89.91C221.92 83.79 221.55 77.15 221.89 70.73C221.99 68.89 221.54 67.02 221.34 65.16L222.3 64.48C224.7 66.75 227.34 68.82 229.45 71.33C246.87 92.08 252.15 115.57 245.09 141.79C242.56 151.2 239.62 160.55 237.82 170.11C235.17 184.2 238.66 197.5 246.05 209.47C250.75 217.08 256.93 223.77 262.27 231C266.25 236.39 270.46 241.7 273.64 247.55C277.86 255.29 277.82 263.53 274.39 271.8C273.47 274.03 273.24 276.75 273.4 279.19C273.66 283 275.76 285.94 279.51 287.14C283.53 288.42 287.15 287.4 289.73 284.01C295.61 276.27 296.67 267.3 295.88 257.98C295.13 249.14 291.82 241.24 286.38 234.28C281.15 227.58 275.65 221.09 270.38 214.41C264.29 206.7 259.03 198.45 256.14 188.98C252.61 177.38 252.98 166.12 260.57 156C266.31 148.35 272.82 147.86 279.38 154.81C297.65 174.17 310.03 196.89 315.33 222.93C327.01 280.32 310.66 328.84 266.73 367.45C244.74 386.78 218.02 395.88 189.04 397.79C165.48 399.34 142.41 396.51 120.48 387.05C92.69 375.06 71.44 355.39 56.24 329.65C27.52 280.99 28.94 231.86 56.91 183.4C62.82 173.16 70.57 163.88 78.24 154.81C83.98 148.02 90.22 148.92 95.6 156.14C103.38 166.59 103.47 178.09 99.61 189.85C96.06 200.66 89.05 209.43 81.92 218.06C76.83 224.22 71.37 230.12 66.74 236.61C57.88 249.01 55.14 262.66 60.37 277.33C61.28 279.89 62.91 282.31 64.68 284.41C67.28 287.49 70.88 288.45 74.7 287.06C78.34 285.73 80.4 282.78 80.73 278.97C80.91 276.88 80.82 274.55 80.07 272.62C76.35 262.96 77.68 253.72 82.87 245.23C86.55 239.22 91.47 233.98 95.66 228.27C101.04 220.93 107.16 213.95 111.34 205.96C119.68 190.04 120.05 173.15 114.51 156.07C110.84 144.75 106.52 133.55 104.01 121.96C100.69 106.57 101.94 91.33 110.97 77.66C115.01 71.55 120.54 67.28 127.6 65.16L127.62 65.2ZM223.33 230.51C222.85 230.95 221.93 231.58 221.29 232.42C213.25 242.96 210.26 255.03 210.82 268.09C211.31 279.39 216.23 289.01 222.2 298.3C224.71 302.21 227.07 306.4 228.54 310.78C233.93 326.81 223.66 342.61 206.85 344.66C202.1 345.24 198.05 347.13 195.39 351.26C191.15 357.85 195.17 366.42 202.92 367.36C204.54 367.56 206.24 367.64 207.84 367.41C238.35 363.01 259.33 333.15 248.56 300.49C245.61 291.54 239.02 285.03 232.9 278.27C226.19 270.85 221.97 262.26 221.81 252.26C221.69 245.11 222.76 237.94 223.33 230.5V230.51Z" fill="white"/>
    <path d="M28.39 496.83C28.39 500.76 26.97 503.86 24.14 506.12C21.31 508.38 17.37 509.52 12.33 509.52C7.68 509.52 3.57 508.65 0 506.9V498.32C2.94 499.63 5.43 500.55 7.46 501.09C9.5 501.63 11.36 501.89 13.04 501.89C15.07 501.89 16.62 501.5 17.7 500.73C18.78 499.96 19.32 498.8 19.32 497.27C19.32 496.42 19.08 495.66 18.61 494.99C18.13 494.32 17.43 493.68 16.51 493.07C15.59 492.45 13.71 491.47 10.87 490.12C8.21 488.87 6.21 487.67 4.88 486.52C3.55 485.37 2.49 484.03 1.69 482.5C0.9 480.97 0.5 479.18 0.5 477.14C0.5 473.29 1.8 470.26 4.42 468.06C7.04 465.86 10.64 464.75 15.25 464.75C17.51 464.75 19.67 465.02 21.73 465.55C23.78 466.09 25.93 466.84 28.18 467.81L25.2 474.99C22.88 474.04 20.96 473.37 19.44 472.99C17.92 472.61 16.43 472.42 14.96 472.42C13.21 472.42 11.87 472.83 10.94 473.64C10.01 474.45 9.54 475.52 9.54 476.83C9.54 477.64 9.73 478.35 10.11 478.96C10.49 479.57 11.09 480.15 11.91 480.72C12.73 481.29 14.68 482.3 17.76 483.77C21.83 485.72 24.62 487.67 26.13 489.62C27.64 491.58 28.39 493.97 28.39 496.81V496.83Z" fill="white"/>
    <path d="M75.58 465.37H84.9L70.1 508.92H60.03L45.26 465.37H54.58L62.77 491.28C63.23 492.81 63.7 494.59 64.19 496.63C64.68 498.67 64.98 500.08 65.1 500.87C65.32 499.04 66.06 495.85 67.33 491.28L75.58 465.37Z" fill="white"/>
    <path d="M129.92 508.92H104.84V465.37H129.92V472.94H114.07V482.5H128.81V490.07H114.07V501.3H129.92V508.92Z" fill="white"/>
    <path d="M192.09 508.92H180.36L161.42 475.98H161.15C161.53 481.8 161.72 485.95 161.72 488.43V508.92H153.47V465.37H165.12L184.03 497.98H184.24C183.94 492.32 183.79 488.32 183.79 485.98V465.37H192.1V508.92H192.09Z" fill="white"/>
    <path d="M243.21 496.83C243.21 500.76 241.79 503.86 238.96 506.12C236.13 508.38 232.19 509.52 227.15 509.52C222.5 509.52 218.39 508.65 214.82 506.9V498.32C217.76 499.63 220.25 500.55 222.28 501.09C224.32 501.63 226.18 501.89 227.86 501.89C229.89 501.89 231.44 501.5 232.52 500.73C233.6 499.96 234.14 498.8 234.14 497.27C234.14 496.42 233.9 495.66 233.43 494.99C232.95 494.32 232.25 493.68 231.33 493.07C230.41 492.45 228.53 491.47 225.69 490.12C223.03 488.87 221.03 487.67 219.7 486.52C218.37 485.37 217.31 484.03 216.51 482.5C215.72 480.97 215.32 479.18 215.32 477.14C215.32 473.29 216.62 470.26 219.24 468.06C221.86 465.86 225.46 464.75 230.07 464.75C232.33 464.75 234.49 465.02 236.55 465.55C238.6 466.09 240.75 466.84 243 467.81L240.02 474.99C237.7 474.04 235.78 473.37 234.26 472.99C232.74 472.61 231.25 472.42 229.78 472.42C228.03 472.42 226.69 472.83 225.76 473.64C224.83 474.45 224.36 475.52 224.36 476.83C224.36 477.64 224.55 478.35 224.93 478.96C225.31 479.57 225.91 480.15 226.73 480.72C227.55 481.29 229.5 482.3 232.58 483.77C236.65 485.72 239.44 487.67 240.95 489.62C242.46 491.58 243.21 493.97 243.21 496.81V496.83Z" fill="white"/>
    <path d="M300.59 508.92H290.11L278.7 490.57L274.8 493.37V508.92H265.57V465.37H274.8V485.3L278.43 480.18L290.22 465.38H300.47L285.28 484.65L300.59 508.93V508.92Z" fill="white"/>
    <path d="M347.18 508.92L344.02 498.55H328.14L324.98 508.92H315.03L330.4 465.2H341.69L357.12 508.92H347.17H347.18ZM341.82 490.81C338.9 481.42 337.26 476.11 336.89 474.87C336.52 473.64 336.26 472.67 336.1 471.95C335.44 474.49 333.57 480.78 330.47 490.8H341.82V490.81Z" fill="white"/>
    <path d="M30.9 549.74V532.61H33.7V549.74H30.9Z" fill="white"/>
    <path d="M57.51 549.74H54.08L45.65 536.09H45.56L45.62 536.85C45.73 538.3 45.78 539.63 45.78 540.83V549.74H43.24V532.61H46.64L55.04 546.19H55.11C55.09 546.01 55.06 545.36 55.02 544.23C54.98 543.1 54.95 542.22 54.95 541.59V532.61H57.52V549.74H57.51Z" fill="white"/>
    <path d="M80.98 541.01C80.98 543.84 80.19 546 78.62 547.5C77.05 549 74.79 549.74 71.83 549.74H67.04V532.61H72.34C75.07 532.61 77.19 533.34 78.7 534.81C80.21 536.28 80.97 538.35 80.97 541.01H80.98ZM78.03 541.1C78.03 537 76.11 534.95 72.28 534.95H69.85V547.38H71.84C75.96 547.38 78.03 545.29 78.03 541.1Z" fill="white"/>
    <path d="M103.11 532.61V543.7C103.11 544.97 102.84 546.07 102.3 547.02C101.76 547.97 100.97 548.7 99.94 549.21C98.91 549.72 97.68 549.98 96.25 549.98C94.13 549.98 92.47 549.42 91.29 548.29C90.11 547.16 89.52 545.62 89.52 543.65V532.61H92.33V543.45C92.33 544.86 92.66 545.91 93.31 546.58C93.96 547.25 94.97 547.59 96.33 547.59C98.97 547.59 100.29 546.2 100.29 543.43V532.61H103.09H103.11Z" fill="white"/>
    <path d="M122.39 545.09C122.39 546.61 121.84 547.81 120.74 548.68C119.64 549.55 118.12 549.98 116.18 549.98C114.24 549.98 112.66 549.68 111.42 549.08V546.43C112.2 546.8 113.03 547.09 113.91 547.3C114.79 547.51 115.61 547.62 116.37 547.62C117.48 547.62 118.3 547.41 118.83 546.99C119.36 546.57 119.62 546 119.62 545.29C119.62 544.65 119.38 544.11 118.89 543.66C118.4 543.21 117.41 542.69 115.89 542.08C114.33 541.45 113.23 540.72 112.59 539.91C111.95 539.1 111.63 538.12 111.63 536.98C111.63 535.55 112.14 534.43 113.15 533.6C114.16 532.77 115.53 532.37 117.24 532.37C118.95 532.37 120.51 532.73 122.14 533.45L121.25 535.74C119.73 535.1 118.37 534.78 117.17 534.78C116.26 534.78 115.58 534.98 115.11 535.37C114.64 535.76 114.41 536.29 114.41 536.93C114.41 537.38 114.5 537.76 114.69 538.07C114.88 538.38 115.19 538.69 115.62 538.97C116.05 539.25 116.82 539.62 117.94 540.08C119.2 540.6 120.12 541.09 120.71 541.54C121.3 541.99 121.73 542.5 122 543.08C122.27 543.66 122.41 544.32 122.41 545.1L122.39 545.09Z" fill="white"/>
    <path d="M136.64 549.74H133.84V535.01H128.8V532.61H141.68V535.01H136.64V549.74Z" fill="white"/>
    <path d="M152.12 542.9V549.74H149.32V532.61H154.16C156.37 532.61 158.01 533.02 159.07 533.85C160.13 534.68 160.66 535.93 160.66 537.6C160.66 539.73 159.55 541.25 157.33 542.16L162.17 549.74H158.98L154.88 542.9H152.11H152.12ZM152.12 540.58H154.07C155.37 540.58 156.32 540.34 156.91 539.85C157.5 539.36 157.79 538.65 157.79 537.69C157.79 536.73 157.47 536.03 156.84 535.6C156.21 535.17 155.25 534.97 153.98 534.97H152.13V540.57L152.12 540.58Z" fill="white"/>
    <path d="M169.67 549.74V532.61H172.47V549.74H169.67Z" fill="white"/>
    <path d="M193.36 537.79C193.36 539.58 192.77 540.95 191.6 541.9C190.43 542.85 188.76 543.33 186.6 543.33H184.82V549.74H182.02V532.61H186.95C189.09 532.61 190.69 533.05 191.76 533.92C192.83 534.79 193.36 536.08 193.36 537.79ZM184.82 540.98H186.31C187.75 540.98 188.8 540.73 189.47 540.23C190.14 539.73 190.48 538.95 190.48 537.89C190.48 536.91 190.18 536.17 189.58 535.69C188.98 535.21 188.04 534.96 186.77 534.96H184.82V540.98Z" fill="white"/>
    <path d="M204.59 542.9V549.74H201.79V532.61H206.63C208.84 532.61 210.48 533.02 211.54 533.85C212.6 534.68 213.13 535.93 213.13 537.6C213.13 539.73 212.02 541.25 209.8 542.16L214.64 549.74H211.45L207.35 542.9H204.58H204.59ZM204.59 540.58H206.54C207.84 540.58 208.79 540.34 209.38 539.85C209.97 539.36 210.26 538.65 210.26 537.69C210.26 536.73 209.94 536.03 209.31 535.6C208.68 535.17 207.72 534.97 206.45 534.97H204.6V540.57L204.59 540.58Z" fill="white"/>
    <path d="M237.36 541.15C237.36 543.94 236.66 546.11 235.27 547.65C233.88 549.19 231.9 549.97 229.35 549.97C226.8 549.97 224.78 549.2 223.39 547.67C222 546.14 221.31 543.95 221.31 541.13C221.31 538.31 222.01 536.13 223.4 534.61C224.79 533.09 226.78 532.34 229.37 532.34C231.96 532.34 233.89 533.11 235.28 534.65C236.67 536.19 237.37 538.36 237.37 541.15H237.36ZM224.28 541.15C224.28 543.26 224.71 544.86 225.56 545.95C226.41 547.04 227.67 547.58 229.35 547.58C231.03 547.58 232.27 547.04 233.12 545.96C233.97 544.88 234.39 543.28 234.39 541.14C234.39 539 233.97 537.44 233.13 536.36C232.29 535.28 231.04 534.73 229.37 534.73C227.7 534.73 226.42 535.27 225.57 536.36C224.72 537.45 224.29 539.04 224.29 541.14L224.28 541.15Z" fill="white"/>
    <path d="M248.83 549.74H246.05V532.61H255.72V534.98H248.83V540.34H255.29V542.72H248.83V549.75V549.74Z" fill="white"/>
    <path d="M263.85 549.74V532.61H266.65V549.74H263.85Z" fill="white"/>
    <path d="M276.19 549.74V532.61H278.99V547.34H286.24V549.74H276.19Z" fill="white"/>
    <path d="M303.9 549.74H294.21V532.61H303.9V534.98H297.01V539.64H303.47V541.98H297.01V547.36H303.9V549.74Z" fill="white"/>
    <path d="M315.42 542.9V549.74H312.62V532.61H317.46C319.67 532.61 321.31 533.02 322.37 533.85C323.43 534.68 323.96 535.93 323.96 537.6C323.96 539.73 322.85 541.25 320.63 542.16L325.47 549.74H322.28L318.18 542.9H315.41H315.42ZM315.42 540.58H317.37C318.67 540.58 319.62 540.34 320.21 539.85C320.8 539.36 321.09 538.65 321.09 537.69C321.09 536.73 320.77 536.03 320.14 535.6C319.51 535.17 318.55 534.97 317.28 534.97H315.43V540.57L315.42 540.58Z" fill="white"/>
</svg>
